<svg width="134" height="58" viewBox="0 0 134 58" fill="none" xmlns="http://www.w3.org/2000/svg">
<rect x="8" y="7" width="34" height="41" rx="8" fill="#D04500"/>
<path d="M28.98 31.52H23.74L22.9 34H19.32L24.4 19.96H28.36L33.44 34H29.82L28.98 31.52ZM28.1 28.88L26.36 23.74L24.64 28.88H28.1Z" fill="white"/>
<path d="M54.4 34L51.48 28.7H50.66V34H47.24V19.96H52.98C54.0867 19.96 55.0267 20.1533 55.8 20.54C56.5867 20.9267 57.1733 21.46 57.56 22.14C57.9467 22.8067 58.14 23.5533 58.14 24.38C58.14 25.3133 57.8733 26.1467 57.34 26.88C56.82 27.6133 56.0467 28.1333 55.02 28.44L58.26 34H54.4ZM50.66 26.28H52.78C53.4067 26.28 53.8733 26.1267 54.18 25.82C54.5 25.5133 54.66 25.08 54.66 24.52C54.66 23.9867 54.5 23.5667 54.18 23.26C53.8733 22.9533 53.4067 22.8 52.78 22.8H50.66V26.28ZM70.3869 19.96V22.7H66.6669V34H63.2469V22.7H59.5269V19.96H70.3869ZM80.7033 25.56V28.4H71.9033V25.56H80.7033ZM92.8448 19.96V22.7H87.1248V25.66H91.4048V28.32H87.1248V34H83.7048V19.96H92.8448ZM98.0623 31.36H102.542V34H94.6423V19.96H98.0623V31.36ZM107.594 22.7V25.54H112.174V28.18H107.594V31.26H112.774V34H104.174V19.96H112.774V22.7H107.594ZM123.594 34L120.734 29.7L118.214 34H114.334L118.834 26.86L114.234 19.96H118.214L121.034 24.2L123.514 19.96H127.394L122.934 27.04L127.574 34H123.594Z" fill="black"/>
</svg>
