<svg width="218" height="61" viewBox="0 0 218 61" fill="none" xmlns="http://www.w3.org/2000/svg">
<rect width="49" height="59" rx="8" fill="#D04500"/>
<path d="M31.96 39.04H21.48L19.8 44H12.64L22.8 15.92H30.72L40.88 44H33.64L31.96 39.04ZM30.2 33.76L26.72 23.48L23.28 33.76H30.2Z" fill="white"/>
<path d="M69.8 45L63.96 34.4H62.32V45H55.48V16.92H66.96C69.1733 16.92 71.0533 17.3067 72.6 18.08C74.1733 18.8533 75.3467 19.92 76.12 21.28C76.8933 22.6133 77.28 24.1067 77.28 25.76C77.28 27.6267 76.7467 29.2933 75.68 30.76C74.64 32.2267 73.0933 33.2667 71.04 33.88L77.52 45H69.8ZM62.32 29.56H66.56C67.8133 29.56 68.7467 29.2533 69.36 28.64C70 28.0267 70.32 27.16 70.32 26.04C70.32 24.9733 70 24.1333 69.36 23.52C68.7467 22.9067 67.8133 22.6 66.56 22.6H62.32V29.56ZM101.774 16.92V22.4H94.3338V45H87.4938V22.4H80.0538V16.92H101.774ZM122.407 28.12V33.8H104.807V28.12H122.407ZM146.69 16.92V22.4H135.25V28.32H143.81V33.64H135.25V45H128.41V16.92H146.69ZM157.125 39.72H166.085V45H150.285V16.92H157.125V39.72ZM176.187 22.4V28.08H185.347V33.36H176.187V39.52H186.547V45H169.347V16.92H186.547V22.4H176.187ZM208.188 45L202.468 36.4L197.428 45H189.668L198.668 30.72L189.468 16.92H197.428L203.068 25.4L208.028 16.92H215.788L206.868 31.08L216.148 45H208.188Z" fill="white"/>
</svg>
