<svg width="76" height="14" viewBox="0 0 76 14" fill="none" xmlns="http://www.w3.org/2000/svg">
<path d="M7 0L8.5716 4.83688H13.6574L9.5429 7.82624L11.1145 12.6631L7 9.67376L2.8855 12.6631L4.4571 7.82624L0.342604 4.83688H5.4284L7 0Z" fill="#EBE014"/>
<path d="M23 0L24.5716 4.83688H29.6574L25.5429 7.82624L27.1145 12.6631L23 9.67376L18.8855 12.6631L20.4571 7.82624L16.3426 4.83688H21.4284L23 0Z" fill="#EBE014"/>
<path d="M37 0L38.5716 4.83688H43.6574L39.5429 7.82624L41.1145 12.6631L37 9.67376L32.8855 12.6631L34.4571 7.82624L30.3426 4.83688H35.4284L37 0Z" fill="#EBE014"/>
<path d="M53 0L54.5716 4.83688H59.6574L55.5429 7.82624L57.1145 12.6631L53 9.67376L48.8855 12.6631L50.4571 7.82624L46.3426 4.83688H51.4284L53 0Z" fill="#EBE014"/>
<path d="M69 0L70.5716 4.83688H75.6574L71.5429 7.82624L73.1145 12.6631L69 9.67376L64.8855 12.6631L66.4571 7.82624L62.3426 4.83688H67.4284L69 0Z" fill="#EBE014"/>
</svg>
